<?xml version="1.0" standalone="no"?><!DOCTYPE svg PUBLIC "-//W3C//DTD SVG 1.1//EN" "http://www.w3.org/Graphics/SVG/1.1/DTD/svg11.dtd"><svg t="1527665023054" class="icon" style="" viewBox="0 0 1024 1024" version="1.1" xmlns="http://www.w3.org/2000/svg" p-id="1122" xmlns:xlink="http://www.w3.org/1999/xlink" width="200" height="200"><defs><style type="text/css"></style></defs><path d="M512 31.9488c-176.4352 0-320 143.5648-320 320 0 186.5728 248.7296 558.8992 320 632.2176 71.3728-73.3184 320-445.5424 320-632.2176 0-176.4352-143.5648-320-320-320z m0 464.0768c-79.5648 0-143.9744-64.512-143.9744-143.9744s64.512-143.9744 143.9744-143.9744 143.9744 64.512 143.9744 143.9744S591.5648 496.0256 512 496.0256z" fill="#d81e06" p-id="1123"></path><path d="M512 752.0256c-48.7424 0-96.0512 15.9744-134.8608 45.4656C432.128 885.1456 484.864 956.3136 512 984.1664c27.136-27.8528 79.872-99.0208 134.8608-186.7776-38.8096-29.3888-86.1184-45.3632-134.8608-45.3632z" fill="#d81e06" p-id="1124"></path><path d="M304.0256 352.0512h-31.9488c-8.8064 0.2048-15.7696 7.5776-15.5648 16.384 0.2048 8.4992 7.0656 15.36 15.5648 15.5648h31.9488c8.8064-0.2048 15.7696-7.5776 15.5648-16.384-0.2048-8.4992-7.0656-15.36-15.5648-15.5648z m384 63.8976H640c-8.8064 0.2048-15.7696 7.5776-15.5648 16.384 0.2048 8.4992 7.0656 15.36 15.5648 15.5648h48.0256c8.8064 0.2048 16.1792-6.7584 16.384-15.5648s-6.7584-16.1792-15.5648-16.384h-0.8192z m-416.0512-256H384c8.8064-0.2048 15.7696-7.5776 15.5648-16.384-0.2048-8.4992-7.0656-15.36-15.5648-15.5648H271.9744c-8.8064 0.2048-15.7696 7.5776-15.5648 16.384 0.2048 8.4992 7.0656 15.36 15.5648 15.5648z m527.9744 48.0256h-64c-8.8064 0.2048-15.7696 7.5776-15.5648 16.384 0.2048 8.4992 7.0656 15.36 15.5648 15.5648h64c8.8064-0.2048 15.7696-7.5776 15.5648-16.384-0.1024-8.4992-6.9632-15.36-15.5648-15.5648zM608.0512 832h-64c-8.8064 0-15.9744 7.168-15.9744 15.9744s7.168 15.9744 15.9744 15.9744h64c8.8064 0 15.9744-7.168 15.9744-15.9744s-7.168-15.9744-15.9744-15.9744zM463.9744 640h-64c-8.8064 0.2048-15.7696 7.5776-15.5648 16.384 0.2048 8.4992 7.0656 15.36 15.5648 15.5648h64c8.8064 0.2048 16.1792-6.7584 16.384-15.5648s-6.7584-16.1792-15.5648-16.384h-0.8192z m144.0768-64c-8.8064 0-15.9744 7.168-15.9744 15.9744s7.168 15.9744 15.9744 15.9744 15.9744-7.168 15.9744-15.9744-7.168-15.9744-15.9744-15.9744z" fill="#d81e06" p-id="1125"></path><path d="M512 192c-88.3712 0-159.9488 71.68-159.9488 159.9488S423.6288 512 512 512s159.9488-71.68 159.9488-159.9488S600.3712 192 512 192z m0 288.0512c-70.656 0-128-57.344-128-128s57.344-128 128-128 128 57.344 128 128-57.344 128-128 128zM512 0C317.5424 0 159.9488 157.5936 159.9488 352.0512c0 224.0512 320 671.9488 352.0512 671.9488s352.0512-448 352.0512-671.9488C864.0512 157.5936 706.3552 0 512 0z m0 935.5264c-28.16-34.7136-67.584-90.5216-108.1344-155.4432 67.2768-37.376 149.0944-37.376 216.3712 0C579.584 845.0048 540.16 900.8128 512 935.5264z m0-215.552c-43.8272 0-86.8352 11.264-124.928 32.8704-81.8176-134.9632-163.0208-300.3392-163.0208-400.7936C224.0512 193.2288 353.28 64.1024 512 64.1024s287.9488 129.2288 287.9488 287.9488c0 100.4544-81.2032 265.9328-163.0208 400.7936-38.0928-21.6064-81.1008-32.8704-124.928-32.8704z" fill="#d81e06" p-id="1126"></path></svg>