<?xml version="1.0" standalone="no"?><!DOCTYPE svg PUBLIC "-//W3C//DTD SVG 1.1//EN" "http://www.w3.org/Graphics/SVG/1.1/DTD/svg11.dtd"><svg t="1524028978925" class="icon" style="" viewBox="0 0 1024 1024" version="1.1" xmlns="http://www.w3.org/2000/svg" p-id="3023" xmlns:xlink="http://www.w3.org/1999/xlink" width="64" height="64"><defs><style type="text/css"></style></defs><path d="M513.209036 515.841491c-59.963697 0-116.333542-23.347754-158.726048-65.744353-42.391483-42.394552-65.738213-98.766444-65.738213-158.730141 0-59.959603 23.345708-116.327402 65.738213-158.720931 42.393529-42.395576 98.763374-65.74333 158.726048-65.74333 59.96779 0 116.340705 23.347754 158.736281 65.74333 42.393529 42.393529 65.74026 98.762351 65.74026 158.721955 0 59.96472-23.346731 116.336612-65.74026 158.731164C629.550765 492.493737 573.176826 515.841491 513.209036 515.841491zM513.209036 92.491531c-109.659539 0-198.874443 89.214904-198.874443 198.875466 0 109.665679 89.214904 198.884676 198.874443 198.884676 109.666702 0 198.885699-89.220021 198.885699-198.884676C712.094736 181.706435 622.874715 92.491531 513.209036 92.491531z" p-id="3024"></path><path d="M960.405101 957.422675l-898.462842 0 0-12.791327c0-60.746526 11.835559-119.644961 35.264155-175.058015 22.62223-53.508681 54.991452-101.544721 96.251158-142.773727 41.241286-41.212634 89.273233-73.567529 142.780891-96.163153 55.375192-23.38357 114.200972-35.240619 174.85233-35.240619 60.652382 0 119.480208 11.857049 174.856423 35.240619 53.507658 22.595624 101.547791 54.949496 142.7901 96.163153 41.258683 41.229007 73.694419 89.265046 96.316649 142.773727 23.428595 55.413054 35.351136 114.311489 35.351136 175.058015L960.405101 957.422675zM87.630315 931.84002l846.911746 0C927.758564 704.128809 740.408595 520.978489 511.085676 520.978489 281.76378 520.978489 94.413811 704.128809 87.630315 931.84002z" p-id="3025"></path></svg>